<?xml version="1.0" encoding="utf-8"?>
<!-- Generator: Adobe Illustrator 21.0.0, SVG Export Plug-In . SVG Version: 6.00 Build 0)  -->
<svg version="1.1" id="Layer_1" xmlns="http://www.w3.org/2000/svg" xmlns:xlink="http://www.w3.org/1999/xlink" x="0px" y="0px"
	 viewBox="0 0 472 369" style="enable-background:new 0 0 472 369;" xml:space="preserve">
<style type="text/css">
	.st0{fill:none;stroke:#000000;stroke-width:4;stroke-miterlimit:10;}
	.st1{fill:#205075;}
	.st2{fill:#CCCCCC;stroke:#000000;stroke-width:4;stroke-miterlimit:10;}
	.st3{fill:#333333;}
	.st4{fill:none;stroke:#000000;stroke-width:3;stroke-miterlimit:10;}
	.st5{opacity:0.22;}
	.st6{fill:#5681A8;}
	.st7{opacity:0.48;}
	.st8{fill:#335772;}
	.st9{fill:none;stroke:#000000;stroke-width:3;stroke-linecap:round;stroke-miterlimit:10;}
	.st10{fill:#FFFFFF;}
	.st11{fill:#FF0000;stroke:#000000;stroke-width:3;stroke-miterlimit:10;}
	.st12{fill:#00FF00;stroke:#000000;stroke-width:3;stroke-miterlimit:10;}
	.st13{fill:#FF0000;}
	.st14{fill:#00FF00;}
	.st15{fill:none;}
	.st16{font-family:'LoRes9MinusOT-WideRegular';}
	.st17{font-size:12px;}
</style>
<g>
	<path class="st0" d="M441,117c6-29.3,12-58.7,18-88"/>
	<g>
		<path class="st1" d="M404.5,79.5c20.5,0.8,37,17.7,37,38.5s-16.5,37.7-37,38.5V79.5z"/>
		<path d="M406,81.1c19,1.5,34,17.5,34,36.9s-15,35.3-34,36.9V81.1 M403,78v80c22.1,0,40-17.9,40-40S425.1,78,403,78L403,78z"/>
	</g>
	<circle class="st2" cx="459.5" cy="20.5" r="10.5"/>
</g>
<g>
	<path class="st3" d="M228.9,331.5c-19,0-34.4-15.5-34.4-34.4v-73.1c0-19,15.5-34.4,34.4-34.4h15.1c19,0,34.4,15.5,34.4,34.4v73.1
		c0,19-15.5,34.4-34.4,34.4H228.9z"/>
	<path d="M244.1,191c18.2,0,32.9,14.8,32.9,32.9v73.1c0,18.2-14.8,32.9-32.9,32.9h-15.1c-18.2,0-32.9-14.8-32.9-32.9v-73.1
		c0-18.2,14.8-32.9,32.9-32.9H244.1 M244.1,188h-15.1c-19.9,0-35.9,16.1-35.9,35.9v73.1c0,19.9,16.1,35.9,35.9,35.9h15.1
		c19.9,0,35.9-16.1,35.9-35.9v-73.1C280,204.1,263.9,188,244.1,188L244.1,188z"/>
</g>
<g>
	<g>
		<rect x="372.5" y="322.5" class="st3" width="27" height="45"/>
		<g>
			<path d="M398,324v42h-24v-42H398 M401,321h-30v48h30V321L401,321z"/>
		</g>
	</g>
	<g>
		<line class="st4" x1="399" y1="335.5" x2="374" y2="335.5"/>
	</g>
	<g>
		<path class="st1" d="M373.5,300.5c14.5,0.6,26,10,26,21.5s-11.5,20.9-26,21.5V300.5z"/>
		<path d="M375,302.1c12.9,1.1,23,9.6,23,19.9s-10.1,18.7-23,19.9V302.1 M372,299v46c16,0,29-10.3,29-23C401,309.3,388,299,372,299
			L372,299z"/>
	</g>
	<g>
		<line class="st4" x1="399.5" y1="344.5" x2="374.5" y2="344.5"/>
	</g>
	<line class="st4" x1="399.5" y1="353.5" x2="374.5" y2="353.5"/>
	<line class="st4" x1="399.5" y1="362.5" x2="374.5" y2="362.5"/>
</g>
<g class="st5">
	<path d="M229,333c-2.3,0-15.5,0-26-10.5c-10.3-10.3-10.5-23-10.5-25.4v-73.1c0-19.9,16.1-35.9,35.9-35.9c-2.9,22.5-4.8,48.4-4.4,77
		C224.3,290,226.3,312.8,229,333z"/>
</g>
<g>
	<path d="M243.6,192c18.2,0,32.9,14.8,32.9,32.9v73.1c0,18.2-14.8,32.9-32.9,32.9h-15.1c-18.2,0-32.9-14.8-32.9-32.9v-73.1
		c0-18.2,14.8-32.9,32.9-32.9H243.6 M243.6,189h-15.1c-19.9,0-35.9,16.1-35.9,35.9v73.1c0,19.9,16.1,35.9,35.9,35.9h15.1
		c19.9,0,35.9-16.1,35.9-35.9v-73.1C279.5,205.1,263.4,189,243.6,189L243.6,189z"/>
</g>
<g>
	<path class="st6" d="M71.5,238.5c-2.2,0-4-1.8-4-4V5.5c0-2.2,1.8-4,4-4h329c2.2,0,4,1.8,4,4v229c0,2.2-1.8,4-4,4H71.5z"/>
	<path d="M400.5,3c1.4,0,2.5,1.1,2.5,2.5v229c0,1.4-1.1,2.5-2.5,2.5h-329c-1.4,0-2.5-1.1-2.5-2.5V5.5C69,4.1,70.1,3,71.5,3H400.5
		 M400.5,0h-329c-3,0-5.5,2.5-5.5,5.5v229c0,3,2.5,5.5,5.5,5.5h329c3,0,5.5-2.5,5.5-5.5V5.5C406,2.5,403.5,0,400.5,0L400.5,0z"/>
</g>
<g class="st7">
	<path class="st8" d="M163,237c-30.5,1-61,2-91.5,3c-1.8-1.8-3.7-3.7-5.5-5.5V5.5c1.8-1.8,3.7-3.7,5.5-5.5c32.8,0.3,65.7,0.7,98.5,1
		c-11.1,31.4-23.7,80.1-22,140C149.1,179.4,155.8,212,163,237z"/>
</g>
<g>
	<path class="st6" d="M91.7,218.5c-2.3,0-4.2-1.9-4.2-4.2V25.7c0-2.3,1.9-4.2,4.2-4.2h288.6c2.3,0,4.2,1.9,4.2,4.2v188.6
		c0,2.3-1.9,4.2-4.2,4.2H91.7z"/>
	<g>
		<path d="M380.3,23c1.5,0,2.7,1.2,2.7,2.7v188.6c0,1.5-1.2,2.7-2.7,2.7H91.7c-1.5,0-2.7-1.2-2.7-2.7V25.7c0-1.5,1.2-2.7,2.7-2.7
			H380.3 M380.3,20H91.7c-3.2,0-5.7,2.6-5.7,5.7v188.6c0,3.2,2.6,5.7,5.7,5.7h288.6c3.2,0,5.7-2.6,5.7-5.7V25.7
			C386,22.6,383.4,20,380.3,20L380.3,20z"/>
	</g>
</g>
<path class="st9" d="M105.5,199.5c-5.3,5.7-10.7,11.3-16,17"/>
<g>
	<path d="M111.3,203.5c-4.9,0-8.8-3.9-8.8-8.8V45.3c0-4.9,3.9-8.8,8.8-8.8h249.4c4.9,0,8.8,3.9,8.8,8.8v149.4c0,4.9-3.9,8.8-8.8,8.8
		H111.3z"/>
	<path d="M360.7,38c4,0,7.3,3.3,7.3,7.3v149.4c0,4-3.3,7.3-7.3,7.3H111.3c-4,0-7.3-3.3-7.3-7.3V45.3c0-4,3.3-7.3,7.3-7.3H360.7
		 M360.7,35H111.3c-5.7,0-10.3,4.6-10.3,10.3v149.4c0,5.7,4.6,10.3,10.3,10.3h249.4c5.7,0,10.3-4.6,10.3-10.3V45.3
		C371,39.6,366.4,35,360.7,35L360.7,35z"/>
</g>
<g>
	<path d="M380.3,23c1.5,0,2.7,1.2,2.7,2.7v188.6c0,1.5-1.2,2.7-2.7,2.7H91.7c-1.5,0-2.7-1.2-2.7-2.7V25.7c0-1.5,1.2-2.7,2.7-2.7
		H380.3 M380.3,20H91.7c-3.2,0-5.7,2.6-5.7,5.7v188.6c0,3.2,2.6,5.7,5.7,5.7h288.6c3.2,0,5.7-2.6,5.7-5.7V25.7
		C386,22.6,383.4,20,380.3,20L380.3,20z"/>
</g>
<path class="st9" d="M382.5,216.5c-5.3-5.7-10.7-11.3-16-17"/>
<path class="st10" d="M423,114"/>
<path class="st9" d="M89.5,23.5c5.3,5.7,10.7,11.3,16,17"/>
<path class="st9" d="M382.5,22.5c-5.3,5.7-10.7,11.3-16,17"/>
<g>
	<path d="M400.5,3c1.4,0,2.5,1.1,2.5,2.5v229c0,1.4-1.1,2.5-2.5,2.5h-329c-1.4,0-2.5-1.1-2.5-2.5V5.5C69,4.1,70.1,3,71.5,3H400.5
		 M400.5,0h-329c-3,0-5.5,2.5-5.5,5.5v229c0,3,2.5,5.5,5.5,5.5h329c3,0,5.5-2.5,5.5-5.5V5.5C406,2.5,403.5,0,400.5,0L400.5,0z"/>
</g>
<circle class="st11" cx="356" cy="229" r="3.5"/>
<g>
	<g>
		<rect x="73.5" y="322.5" class="st3" width="27" height="45"/>
		<g>
			<path d="M99,324v42H75v-42H99 M102,321H72v48h30V321L102,321z"/>
		</g>
	</g>
	<g>
		<line class="st4" x1="74" y1="335.5" x2="99" y2="335.5"/>
	</g>
	<g>
		<path class="st1" d="M99.5,343.5c-14.5-0.6-26-10-26-21.5s11.5-20.9,26-21.5V343.5z"/>
		<path d="M98,302.1v39.7c-12.9-1.1-23-9.6-23-19.9S85.1,303.3,98,302.1 M101,299c-16,0-29,10.3-29,23c0,12.7,13,23,29,23V299
			L101,299z"/>
	</g>
	<g>
		<line class="st4" x1="73.5" y1="344.5" x2="98.5" y2="344.5"/>
	</g>
	<line class="st4" x1="73.5" y1="353.5" x2="98.5" y2="353.5"/>
	<line class="st4" x1="73.5" y1="362.5" x2="98.5" y2="362.5"/>
</g>
<circle class="st12" cx="370" cy="229" r="3.5"/>
<g>
	<g>
		<path class="st4" d="M194.5,247.5c14,0.7,28.7,1,44,1c13.5,0,26.5-0.4,39-1"/>
	</g>
</g>
<g>
	<g>
		<path class="st4" d="M194.5,257.5c14,0.7,28.7,1,44,1c13.5,0,26.5-0.4,39-1"/>
	</g>
</g>
<g>
	<g>
		<path class="st4" d="M194.5,267.5c14,0.7,28.7,1,44,1c13.5,0,26.5-0.4,39-1"/>
	</g>
</g>
<g>
	<g>
		<path class="st4" d="M194.5,278.5c14,0.7,28.7,1,44,1c13.5,0,26.5-0.4,39-1"/>
	</g>
</g>
<g>
	<g>
		<path class="st4" d="M194.5,289.5c14,0.7,28.7,1,44,1c13.5,0,26.5-0.4,39-1"/>
	</g>
</g>
<g>
	<path class="st0" d="M31,118c-6-29.3-12-58.7-18-88"/>
	<g>
		<path class="st1" d="M67.5,157.5c-20.5-0.8-37-17.7-37-38.5c0-20.7,16.5-37.7,37-38.5V157.5z"/>
		<path d="M66,82.1v73.8c-19-1.5-34-17.5-34-36.9S47,83.7,66,82.1 M69,79c-22.1,0-40,17.9-40,40s17.9,40,40,40V79L69,79z"/>
	</g>
	<circle class="st2" cx="12.5" cy="21.5" r="10.5"/>
</g>
<g>
	<rect x="97.5" y="299" class="st6" width="277" height="70"/>
</g>
<g class="st7">
	<path class="st8" d="M191,301c-30.7,0-61.3,0-92,0c0,22.7,0,45.3,0,68h118.8C208.9,346.3,199.9,323.7,191,301z"/>
</g>
<g>
	<rect x="109.5" y="311.5" class="st13" width="11" height="11"/>
	<rect x="109.5" y="311.5" class="st4" width="11" height="11"/>
</g>
<g>
	<path d="M371.5,302v64h-271v-64H371.5 M374.5,299h-277v70h277V299L374.5,299z"/>
</g>
<g>
	<rect x="126.5" y="311.5" class="st14" width="11" height="11"/>
	<rect x="126.5" y="311.5" class="st4" width="11" height="11"/>
</g>
<rect x="279.6" y="314.6" class="st15" width="88.3" height="23.2"/>
<text transform="matrix(1 0 0 1 309.2227 323.8135)" class="st16 st17">OBLIQUE</text>
</svg>
